<svg width="103" height="24" viewBox="0 0 103 24" fill="none" xmlns="http://www.w3.org/2000/svg">
<path fill-rule="evenodd" clip-rule="evenodd" d="M0.000325802 12.0254C0.000108601 12.0613 0 12.0974 0 12.1335C0 14.4347 0.447443 16.4198 1.34233 18.0888C2.24432 19.7578 3.49787 21.0433 5.10298 21.9453C6.7081 22.8473 8.57244 23.2983 10.696 23.2983C12.5994 23.2983 14.2862 22.9254 15.7564 22.1797C17.2337 21.4269 18.3913 20.3473 19.2294 18.9411C20.0746 17.5277 20.4972 15.8267 20.4972 13.8381V10.8125H10.8239V15.0313H14.7869C14.7585 15.983 14.407 16.7394 13.7322 17.3004C13.0646 17.8615 12.0668 18.1421 10.7386 18.1421C9.20455 18.1421 8.04688 17.6058 7.26562 16.5334C6.48438 15.4609 6.09375 13.9659 6.09375 12.0483C6.09375 10.1591 6.50213 8.68538 7.31889 7.62714C8.13565 6.5689 9.28977 6.03978 10.7812 6.03978C11.7116 6.03978 12.4787 6.24575 13.0824 6.65768C13.6861 7.06251 14.0767 7.63779 14.2543 8.38353H20.2415C20.0923 6.92046 19.581 5.62785 18.7074 4.50569C17.8409 3.37643 16.7116 2.49219 15.3196 1.85299C14.0584 1.26742 12.663 0.947117 11.1336 0.89209L0.000325802 12.0254ZM23.2591 1.18182V23H38.0034V18.2273H29.1824V1.18182H23.2591ZM53.3523 1.18182H59.233V15.5852C59.233 17.2472 58.8423 18.6499 58.0611 19.7933C57.2869 20.9297 56.1932 21.7926 54.7798 22.3821C53.3736 22.9645 51.7188 23.2557 49.8153 23.2557C47.8977 23.2557 46.2322 22.9645 44.8189 22.3821C43.4126 21.7926 42.3224 20.9297 41.5483 19.7933C40.7813 18.6499 40.3977 17.2472 40.3977 15.5852V1.18182H46.321V15.3296C46.321 16.1392 46.63 16.7962 47.2479 17.3004C47.8729 17.8047 48.7287 18.0568 49.8153 18.0568C50.9233 18.0568 51.7898 17.8047 52.4148 17.3004C53.0398 16.7962 53.3523 16.1392 53.3523 15.3296V1.18182ZM62.1333 19.7188V23H79.9458V18.2273H69.676L79.9885 4.46307V1.18182H62.176V5.95455H72.4458L62.1333 19.7188ZM91.2731 23H82.8782V1.18182H91.1879C93.4322 1.18182 95.3711 1.61861 97.0046 2.49219C98.6452 3.35867 99.9094 4.60867 100.797 6.24219C101.692 7.86861 102.14 9.81819 102.14 12.0909C102.14 12.4787 102.127 12.8572 102.101 13.2264L92.3638 22.9634C92.0085 22.9878 91.645 23 91.2731 23ZM88.8015 17.9716H91.06C92.1396 17.9716 93.0593 17.7976 93.8193 17.4496C94.5863 17.1016 95.1687 16.5014 95.5664 15.6492C95.9712 14.7969 96.1737 13.6108 96.1737 12.0909C96.1737 10.571 95.9677 9.38495 95.5558 8.53268C95.1509 7.6804 94.5543 7.08026 93.766 6.73225C92.9847 6.38424 92.0259 6.21023 90.8896 6.21023H88.8015V17.9716Z" fill="#EC474A"/>
</svg>
