<svg width="103" height="23" viewBox="0 0 103 23" fill="none" xmlns="http://www.w3.org/2000/svg">
<path fill-rule="evenodd" clip-rule="evenodd" d="M0.000325802 11.1333C0.000108601 11.1693 0 11.2053 0 11.2414C0 13.5426 0.447443 15.5277 1.34233 17.1967C2.24432 18.8657 3.49787 20.1512 5.10298 21.0532C6.7081 21.9552 8.57244 22.4062 10.696 22.4062C12.5994 22.4062 14.2862 22.0333 15.7564 21.2876C17.2337 20.5348 18.3913 19.4552 19.2294 18.049C20.0746 16.6356 20.4972 14.9346 20.4972 12.946V9.92042H10.8239V14.1392H14.7869C14.7585 15.0909 14.407 15.8473 13.7322 16.4083C13.0646 16.9694 12.0668 17.25 10.7386 17.25C9.20455 17.25 8.04688 16.7137 7.26562 15.6413C6.48438 14.5689 6.09375 13.0738 6.09375 11.1562C6.09375 9.26701 6.50213 7.79329 7.31889 6.73505C8.13565 5.67681 9.28977 5.14769 10.7812 5.14769C11.7116 5.14769 12.4787 5.35366 13.0824 5.76559C13.6861 6.17042 14.0767 6.7457 14.2543 7.49144H20.2415C20.0923 6.02837 19.581 4.73576 18.7074 3.6136C17.8409 2.48434 16.7116 1.6001 15.3196 0.960901C14.0584 0.375327 12.663 0.0550269 11.1336 0L0.000325802 11.1333ZM23.2591 0.289735V22.1079H38.0034V17.3352H29.1824V0.289735H23.2591ZM53.3523 0.289735H59.233V14.6931C59.233 16.3551 58.8423 17.7578 58.0611 18.9012C57.2869 20.0376 56.1932 20.9005 54.7798 21.49C53.3736 22.0724 51.7188 22.3636 49.8153 22.3636C47.8977 22.3636 46.2322 22.0724 44.8189 21.49C43.4126 20.9005 42.3224 20.0376 41.5483 18.9012C40.7813 17.7578 40.3977 16.3551 40.3977 14.6931V0.289735H46.321V14.4375C46.321 15.2471 46.63 15.9041 47.2479 16.4083C47.8729 16.9126 48.7287 17.1647 49.8153 17.1647C50.9233 17.1647 51.7898 16.9126 52.4148 16.4083C53.0398 15.9041 53.3523 15.2471 53.3523 14.4375V0.289735ZM62.1333 18.8267V22.1079H79.9458V17.3352H69.676L79.9885 3.57099V0.289735H62.176V5.06246H72.4458L62.1333 18.8267ZM91.2731 22.1079H82.8782V0.289735H91.1879C93.4322 0.289735 95.3711 0.726525 97.0046 1.6001C98.6452 2.46658 99.9094 3.71658 100.797 5.3501C101.692 6.97652 102.14 8.9261 102.14 11.1988C102.14 11.5866 102.127 11.9651 102.101 12.3343L92.3638 22.0713C92.0085 22.0957 91.645 22.1079 91.2731 22.1079ZM88.8015 17.0795H91.06C92.1396 17.0795 93.0593 16.9055 93.8193 16.5575C94.5863 16.2095 95.1687 15.6093 95.5664 14.7571C95.9712 13.9048 96.1737 12.7187 96.1737 11.1988C96.1737 9.67894 95.9677 8.49286 95.5558 7.64059C95.1509 6.78831 94.5543 6.18817 93.766 5.84016C92.9847 5.49215 92.0259 5.31814 90.8896 5.31814H88.8015V17.0795Z" fill="#6B818C"/>
</svg>
