<svg xmlns="http://www.w3.org/2000/svg" viewBox="0 0 403.91 158.65"><defs><style>.cls-1{fill:#fff;stroke:#ec474a;stroke-miterlimit:10;stroke-width:10px;}.cls-2{fill:#ec474a;}</style></defs><title>2Asset 1@3x-3338</title><g id="Layer_2" data-name="Layer 2"><g id="Layer_2-2" data-name="Layer 2"><rect class="cls-1" x="5" y="5" width="393.91" height="148.65" rx="15.83" ry="15.83"/><path class="cls-2" d="M55.47,79.12v.31a35.76,35.76,0,0,0,3.85,17.09,27.37,27.37,0,0,0,10.79,11.06,32.25,32.25,0,0,0,16,3.88,31.67,31.67,0,0,0,14.52-3.21,24.13,24.13,0,0,0,10-9.29,28,28,0,0,0,3.64-14.64V75.65H86.52v12.1H97.89a8.33,8.33,0,0,1-3,6.5c-1.91,1.61-4.78,2.42-8.58,2.42q-6.6,0-10-4.62T73,79.19q0-8.13,3.52-12.68T86.4,62A11.46,11.46,0,0,1,93,63.73a7.94,7.94,0,0,1,3.36,5h17.17a21.17,21.17,0,0,0-4.4-11.12A25.19,25.19,0,0,0,99.41,50a30.85,30.85,0,0,0-12-2.76ZM122.19,48V110.6h42.29V96.91h-25.3V48Zm86.31,0h16.87V89.34a19.73,19.73,0,0,1-12.77,19.49,41.9,41.9,0,0,1-28.57,0,20.69,20.69,0,0,1-9.38-7.42,21.19,21.19,0,0,1-3.3-12.07V48h17V88.6A6.94,6.94,0,0,0,191,94.25a11.41,11.41,0,0,0,7.37,2.17q4.77,0,7.45-2.17a6.89,6.89,0,0,0,2.69-5.65Zm25.19,53.17v9.41h51.09V96.91H255.32L284.9,57.43V48H233.81V61.71h29.46Zm83.58,9.41H293.19V48H317a35,35,0,0,1,16.68,3.76,25.89,25.89,0,0,1,10.88,10.76,34.35,34.35,0,0,1,3.85,16.77c0,1.11,0,2.2-.11,3.26L320.4,110.5C319.38,110.57,318.34,110.6,317.27,110.6Zm-7.09-14.42h6.48a18.86,18.86,0,0,0,7.91-1.5,10.1,10.1,0,0,0,5-5.16q1.76-3.67,1.75-10.21t-1.78-10.2a10.14,10.14,0,0,0-5.13-5.17,20.21,20.21,0,0,0-8.25-1.49h-6Z"/></g></g></svg>